<svg xmlns="http://www.w3.org/2000/svg" viewBox="0 0 227.64 227.64"><defs><style>.cls-1{fill:#fff;}.cls-2{fill:none;stroke:#fff;stroke-miterlimit:10;stroke-width:1.62px;}</style></defs><g id="Layer_2" data-name="Layer 2"><g id="Layer_1-2" data-name="Layer 1"><path class="cls-1" d="M149.35,131.17c-.17,1.47.69,2.26,1.19,3.15,3.65,6.53,7.36,13,11,19.56a26.84,26.84,0,0,1,2.63,5.83c1.76,6.28-.64,11-6.73,13.31A24.46,24.46,0,0,1,149,174.4c-6,0-12-.05-18,0a4.71,4.71,0,0,1-4.27-2.17c-3.62-4.85-8.11-8.3-14.61-7.69a17.57,17.57,0,0,0-11.86,6.4c-2.44,2.85-5.1,3.67-8.66,3.49-4.91-.26-9.85,0-14.77-.08-11.93-.21-17-9.16-11-19.58,3.92-6.88,7.89-13.72,11.81-20.6.51-.9,1.3-1.69,1.3-2.86-1-.56-2.1-.3-3.13-.3q-11.25,0-22.49,0a21.17,21.17,0,0,1-6.34-.89c-7.9-2.44-11.29-9.71-7.46-17,3.17-6,7-11.73,10.58-17.59a3.11,3.11,0,0,1,2.67-1.49,21.14,21.14,0,0,0,3.15-.53C66.4,91,71.49,83.17,68.48,72.89A11,11,0,0,1,70.1,62.62c3.48-5.14,6.47-10.59,9.78-15.84s9-7.66,14.25-6.12c3.3,1,5.42,3.25,7.05,6.15,4,7.1,8,14.17,12,21.25.35.62.75,1.22,1.35,2.2l11-19.14a36.48,36.48,0,0,1,4.22-6.42c4.6-5.16,10.28-5.6,15.6-1.24a18.21,18.21,0,0,1,4.11,4.48c3.51,5.76,6.87,11.6,10.35,17.37a3.58,3.58,0,0,1,.12,3.36,22.79,22.79,0,0,0-1.28,8.51c.17,8,4.8,13.77,12.69,14.89a8.55,8.55,0,0,1,7.24,5.13c2.91,5.71,6.3,11.18,9.47,16.76,4.61,8.12-.55,17.18-9.85,17.24-8.56.05-17.13,0-25.7,0ZM84.93,156c3.08,0,5.43-.13,7.77,0a6.78,6.78,0,0,0,5.87-2.41c3.62-3.78,8-6.46,13.38-6.89,6.77-.53,11.89,2.68,16.31,7.41.71.75,1.15,2,2.37,2,4.3,0,8.61,0,13.47,0-4.8-8.35-9.23-16-13.6-23.7a2.57,2.57,0,0,0-2.65-1.28c-8.88,0-17.75,0-26.63-.07A3.24,3.24,0,0,0,97.93,133c-1.82,3.38-3.78,6.7-5.67,10ZM59,114c9.6,0,18.59-.06,27.57,0a4,4,0,0,0,4-2.35c3.64-6.54,7.15-13.17,11.22-19.44,2.37-3.65,2.27-6.42,0-10-4-6.18-7.42-12.7-11.27-19.39-2.19,3.48-4.12,6.65-6.16,9.75a4.79,4.79,0,0,0-.55,4.95c4,10.61-.22,20.89-10.25,25.45a25.81,25.81,0,0,1-7.07,2c-1.14.17-2.29.29-3,1.54C62.21,108.93,60.77,111.16,59,114Zm109.22,0c-1.76-2.92-3.31-5.1-4.45-7.48s-2.88-3.27-5.41-3.68c-9.38-1.53-15.18-7.45-16.09-16.13A27,27,0,0,1,143.56,76c.28-.91.89-1.79.29-2.75-2-3.2-4-6.38-6.27-9.9-4.47,7.84-8.62,15.17-12.83,22.47a2.57,2.57,0,0,0,0,2.93q6.77,11.82,13.41,23.71c.49.87,1,1.6,2.15,1.59C149.4,114,158.48,114.05,168.24,114.05ZM119.76,79.26c.69-1.16,1.28-2.13,1.86-3.12,4.09-7,8-14.12,12.32-21,2.41-3.91,4.24-3.8,7-.08,3.33,4.47,6,9.33,9.07,14a3.8,3.8,0,0,1,.18,4.39c-5.55,10.79,2.06,25.2,15,25.26a3.92,3.92,0,0,1,3.77,2.33c2.46,4.26,5,8.45,7.53,12.69a29,29,0,0,1,1.76,3.42c1.27,3,.44,4.45-2.82,4.81a39.5,39.5,0,0,1-4.49.07q-31.95-.15-63.91-.32c-1.87,0-3.41.15-3.64,2.59a11.35,11.35,0,0,0,1.3.17l70,.25a14.17,14.17,0,0,0,1.6-.06c5.72-.64,7.16-3.35,4.59-8.57-.14-.29-.26-.59-.42-.87-2.81-5-5.66-10.06-8.41-15.14a4.37,4.37,0,0,0-3.64-2.5c-7.69-1.21-13.61-5-16.28-12.7a19.34,19.34,0,0,1,.64-13.8c.42-1.06,1.05-2,.27-3.27-3.06-5-5.82-10.23-9.06-15.13-4.11-6.2-7.63-6.15-11.54.21-4.66,7.55-8.92,15.34-13.43,23C118.14,77.26,118.57,78.14,119.76,79.26Zm24,52.31c.54,1,1,1.83,1.44,2.65,4.2,7.33,8.42,14.65,12.59,22,4.54,8,2.73,11.85-6.33,12.55-6.28.48-12.62.09-18.93.31a6.46,6.46,0,0,1-6.15-2.91c-5.66-7.6-14.46-8.95-22.45-3.83A25.94,25.94,0,0,0,97.84,168a3.76,3.76,0,0,1-3.2,1.73c-5.46-.09-10.92.12-16.38-.08-8-.3-11.08-5.08-8.18-12.56a68.2,68.2,0,0,1,4.86-9q15.53-27,31.1-53.89c.84-1.45,1.73-2.81-.4-4.05-.37.57-.74,1.09-1,1.65Q86.05,124,67.51,156.22a14.63,14.63,0,0,0-1.79,5.12c-.86,5.56,2.14,9.65,7.73,10.51a27.56,27.56,0,0,0,4.16.33c4.49,0,9-.15,13.48.07,3.19.16,5.77-.39,7.84-3.09a16.42,16.42,0,0,1,4.2-3.44c4.15-2.7,8.57-4.23,13.66-3.05,4.74,1.11,8.19,4,11.19,7.59.81,1,1.44,2,3,2,7.06-.22,14.14.39,21.18-.32,9.8-1,12.92-6.65,8.31-15.31-4.26-8-8.88-15.85-13.32-23.78C146.51,131.6,145.73,130.69,143.78,131.57Zm-62.23-4.95c-4.54,0-8.92,0-13.29,0-5.45-.08-10.91.37-16.34-.55-7.73-1.3-10-5.53-6.63-12.56.32-.67.73-1.31,1.11-1.95,1.88-3.11,4-6.12,5.58-9.36a9.35,9.35,0,0,1,8-5.67c9.37-1.29,15.25-9.72,13.87-19.07a18.86,18.86,0,0,0-1.23-5c-.88-1.92-.49-3.37.58-5,3.22-5.05,6.26-10.21,9.44-15.28a16,16,0,0,1,4.68-5.22,6.19,6.19,0,0,1,8,.37,17.7,17.7,0,0,1,4.08,5.32Q109.69,71.07,120,89.53q6.28,11.19,12.54,22.4c.78,1.4,1.53,2.85,3.69,1.65q-11.65-20.7-23.18-41.17c-4.73-8.38-9.38-16.8-14.22-25.12-3.27-5.62-9.44-6.54-14.48-2.39a15.38,15.38,0,0,0-3.23,4c-3.24,5.29-6.38,10.64-9.74,15.85a7.33,7.33,0,0,0-.94,6.75c3.43,11.77-2,21.25-13.54,24.15a29.11,29.11,0,0,1-3.47.67,2.55,2.55,0,0,0-2.07,1.27c-3.31,5.49-6.9,10.84-9.9,16.5-3.34,6.28-.33,12.32,6.61,14.1a15.76,15.76,0,0,0,3.78.6c9,.05,18,0,27,.05C80.13,128.81,81.24,128.71,81.55,126.62ZM117,74.42c.28-.19.4-.23.45-.32q6-10.26,11.89-20.52a21.21,21.21,0,0,1,4.73-6c2.8-2.3,5.3-2.33,8.13-.09a23.31,23.31,0,0,1,5.42,6.71c2.32,4,4.52,8,7,11.9a5.28,5.28,0,0,1,.41,5.56c-4.56,10.54.9,21.07,12,23.45a16.11,16.11,0,0,0,2.86.37,3.86,3.86,0,0,1,3.48,2.35c3,5.64,6.2,11.23,9.32,16.83A14.84,14.84,0,0,1,184,118.2c.94,3.72-.53,6.49-4.14,7.87a18.33,18.33,0,0,1-6.66.72l-47.85-.06q-10.75,0-21.52,0c-1.31,0-2.88-.33-2.9,1.87a4.86,4.86,0,0,0,1,.23c25.48.09,51,.24,76.44.21,7.44,0,11.45-7.39,7.78-13.91-3.36-6-6.85-11.85-10.15-17.84a5,5,0,0,0-4.23-2.81c-8.06-1-13.4-6.09-15.07-14a22.25,22.25,0,0,1,.81-11.39,4.62,4.62,0,0,0-.51-4.17c-2.87-4.64-5.6-9.36-8.34-14.08a21.21,21.21,0,0,0-4.46-5.42c-4.49-3.92-9-3.63-12.88.81a14.36,14.36,0,0,0-1.72,2.32c-4.4,7.58-8.75,15.19-13.18,22.75A2.13,2.13,0,0,0,117,74.42ZM82.06,157.2a7.75,7.75,0,0,1,1.32-2.84c9.41-16.54,18.77-33.1,28.27-49.58,1.26-2.19,1.38-3.84-.7-5.71l-3,5.27Q93.72,129.26,79.5,154.19c-1.13,2-2.55,3.9-2.42,6.5a7.34,7.34,0,0,0,1.6.56c5.45.44,10.91.14,16.37.25,1,0,1.49-.68,2-1.36a19.88,19.88,0,0,1,31.44-.27,3.4,3.4,0,0,0,3,1.45c5.56-.09,11.13,0,16.69-.1,1.25,0,2.58.12,3.8-.94.2-1.76-.81-3.19-1.7-4.6-4.55-7.24-8.69-14.73-12.84-22.2-1.2-2.16-2.56-2.76-5-2q7.45,13.05,14.65,25.62c-1.36,1.38-2.5,1-3.52,1-3.85.05-7.71-.1-11.56.09a5.76,5.76,0,0,1-5.16-2.37c-7.57-8.81-17.4-9.65-25.73-1.62a12.53,12.53,0,0,1-10.73,3.92c-2-.18-4.07,0-6.1,0C83.57,158.12,82.77,158.31,82.06,157.2Zm26.25-62.6c-9.55,16.55-19,32.91-28.45,49.32-2.71,4.73-5.89,9.21-7.85,14.33-2.21,5.79-.06,8.9,6.15,9,4.49.1,9-.11,13.48.08a6.75,6.75,0,0,0,6.3-2.74,20.35,20.35,0,0,1,7.68-5.68c7.19-3.34,14.87-2.6,20,3.36,3.43,4,7,4.75,11.67,4.47,4.48-.26,9-.09,13.48-.14a17.2,17.2,0,0,0,2.87-.25c4.29-.82,5.19-2.5,3.55-6.54-1.1-2.7-2.88-5-4.29-7.52-3.59-6.44-7.24-12.85-10.88-19.27-.67-1.19-1.28-2.56-3.3-1.42,3.93,6.8,7.81,13.55,11.74,20.28a36.68,36.68,0,0,1,3.34,6.2c1,2.79.17,4.28-2.71,4.94a9.87,9.87,0,0,1-2.23.22c-6.1,0-12.21,0-18.31.09a3.55,3.55,0,0,1-3.24-1.55,17.71,17.71,0,0,0-29,.26,3.19,3.19,0,0,1-2.94,1.57c-5.35-.12-10.7,0-16-.3-4.38-.22-5.43-2.1-3.71-6.15a104.91,104.91,0,0,1,6-11q13.5-23.68,27-47.35C109.4,97.5,110.48,96.11,108.31,94.6Zm-24,27.07H79.64c-8.14,0-16.28,0-24.41-.2-5.89-.12-7.19-2.39-4.32-7.45,2.11-3.72,4.54-7.25,6.68-11a5,5,0,0,1,4.47-2.86c8.49-.76,14.17-5.27,16.11-12.46a17.86,17.86,0,0,0-1.26-12.82,3.87,3.87,0,0,1,.3-4.37c3.31-5,6.41-10.11,9.72-15.11,3.53-5.33,5.35-5.22,8.52.32l13.64,24q9.14,16,18.29,32c.74,1.27,1.31,3.08,3.57,1.8-.3-.56-.54-1-.8-1.49q-16.49-29.37-33-58.74c-4.13-7.33-8-7.37-12.61-.18-2.71,4.23-5.15,8.64-8,12.79a8.88,8.88,0,0,0-1.31,8.25C78.81,86.55,71.43,97.46,58.7,99A4.43,4.43,0,0,0,55,101.49c-2.18,3.8-4.5,7.53-6.76,11.28a14.46,14.46,0,0,0-2,5c-.42,2.64.24,4.09,2.64,5.15a15.61,15.61,0,0,0,6.25,1.28c8.78.07,17.56.09,26.33.19C83.05,124.42,84.05,123.9,84.27,121.67Zm-32.74-3.34c1.68,1.14,3.44,1,5.1,1.06,9.1.12,18.2.1,27.29.27,2.38,0,3-1.21,3.5-3.39H76.62c-3.43,0-6.86.08-10.28,0s-6.89.51-10.57-.48c1.82-3.92,4.08-6.91,5.87-10.17a4.52,4.52,0,0,1,4-2.6,20.21,20.21,0,0,0,10.41-3.8C82.87,94.3,85,85.85,81.46,77.36a4.34,4.34,0,0,1,.34-4.67c2.33-3.46,4.43-7.07,6.68-10.58.55-.85.82-2,2.07-2.22a1.65,1.65,0,0,1,1.26,1c6,10.19,11.8,20.55,17.88,30.73,3.92,6.55,7.6,13.28,11.21,20,1.15,2.15,2.5,3.05,5.11,2.07q-17.17-30-34.25-59.89c-1.88.59-2.4,1.84-3.07,2.88-3,4.57-5.82,9.23-8.88,13.74a4.64,4.64,0,0,0-.44,4.94c4.76,12.17-1.75,24.46-14.5,26.5a8.81,8.81,0,0,0-7.19,5.09c-1.37,2.53-3,4.91-4.53,7.38A8.46,8.46,0,0,0,51.53,118.33Zm54.58,1.2h70.66a10.45,10.45,0,0,0-1.62-3.77c-2.48-4.25-5.05-8.45-7.48-12.73a4,4,0,0,0-3.46-2.22C150.29,99.08,142.66,86.09,148,73.18a3.62,3.62,0,0,0-.24-3.83c-2.71-4.1-5.31-8.28-8-12.4-.62-.94-1.08-2.14-2.59-2.37a19,19,0,0,0-3.46,4.87c-3.85,6.67-7.6,13.4-11.56,20-1.27,2.12-1.1,3.6.86,5.25l14-24.51a3.69,3.69,0,0,1,2.56,2.23c1.92,3,3.72,6,5.73,8.9a4.47,4.47,0,0,1,.59,4.75,20.27,20.27,0,0,0-1.37,6.56c-.82,10.3,5.15,17.41,15.68,18.41a4.92,4.92,0,0,1,4.34,2.67c1.79,3.16,3.8,6.2,5.67,9.32.47.78,1.26,1.54.71,2.68-1.06,1-2.41.54-3.64.54q-28.42,0-56.87,0C108,116.21,106.48,116.8,106.11,119.53Zm13.65-5.7-5.49-9.55-5.33,9.66A82.62,82.62,0,0,0,119.76,113.83Z"/><path class="cls-1" d="M29.5,53.82l1.2,1.85-2,1.16L27.53,55Zm8.9,2.26a7.41,7.41,0,0,1,3,3.37,6,6,0,0,1-.25,2.92A8.25,8.25,0,0,1,40,65.1a2.85,2.85,0,0,1-2.73,1.21,6.58,6.58,0,0,1-3-1.31,10.08,10.08,0,0,1-2-2A9.25,9.25,0,0,1,31,60.59c-.06-.14-.07-.24,0-.3s.09-.06.15,0a.67.67,0,0,1,.19.23A10.48,10.48,0,0,0,34,63.8a3.24,3.24,0,0,0,2.11.71,2.29,2.29,0,0,0,1.73-1,8.3,8.3,0,0,0,1.57-5,8,8,0,0,0-4.5-1.68l-1.11-2.32c-.07-.13,0-.19.12-.19A8.21,8.21,0,0,1,38.4,56.08Z"/><path class="cls-1" d="M39.87,51.3a3.51,3.51,0,0,1,.8,1.45,6,6,0,0,1,.4,1.63c0,.18,0,.29,0,.32s-.12-.05-.31-.22C40,53.74,39.4,53.26,39.13,53Q37.81,52,35.6,50.37,33,48.44,32.07,47.71l-.62-2.63c0-.12,0-.19,0-.22s.12,0,.28.15Z"/><path class="cls-1" d="M47,46.61a10.43,10.43,0,0,1,2.77,4.16q1,2.73-.42,4.24a3.1,3.1,0,0,1-2.33.7,7.09,7.09,0,0,1-2.59-.39,1.86,1.86,0,0,1-.47-.25q-.09-.09,0-.15a.82.82,0,0,1,.45-.14,4.35,4.35,0,0,0,2.5-1.29,3.43,3.43,0,0,0,.88-2.55,5.56,5.56,0,0,0-.89-2.79,7.2,7.2,0,0,0-3.27-.51L42.4,45.12A5,5,0,0,1,47,46.61Z"/><path class="cls-1" d="M51.63,41a8.77,8.77,0,0,1,1,1.13c.16.4-.57,1.34-2.18,2.82a13.35,13.35,0,0,1-1.16.93c-.53.41-.92.72-1.16.94l-.73.67a.55.55,0,0,1-.88-.06L45,45.85l1.12-1c.25-.23.64-.56,1.15-1s.9-.75,1.15-1a6.42,6.42,0,0,0,1.14-1.27,7.86,7.86,0,0,0-2.61-1l-.59-2.49c0-.21,0-.29.21-.25A10.21,10.21,0,0,1,51.63,41Zm4.07,6,.17,2.12-1.93-.06.17,1.68-2.2,0-.21-2.06h2L53.49,47Z"/><path class="cls-1" d="M54.51,37.16a3.6,3.6,0,0,1,.5,1.58,6.23,6.23,0,0,1,.08,1.67c0,.19,0,.3-.05.32s-.11-.07-.27-.27c-.66-.89-1.11-1.47-1.33-1.73q-1.08-1.32-2.94-3.31Q48.28,33,47.56,32.13l-.11-2.7c0-.13,0-.2,0-.22s.12,0,.25.2Z"/><path class="cls-1" d="M70.73,30l-.79.49c-.21.12-.51.29-.93.49s-.71.35-.9.47a2.87,2.87,0,0,0-1,.91c2.28-.35,3.48-.44,3.59-.26a8,8,0,0,1,.47,1,4,4,0,0,1,.31,1,5.08,5.08,0,0,1-1.46,3,10.74,10.74,0,0,1-2.54,2.24,3.58,3.58,0,0,1-2.75.56,3.72,3.72,0,0,1-2.32-1.85,7.51,7.51,0,0,1-1-4.86c0-.17,0-.27.12-.32a.09.09,0,0,1,.13,0,.55.55,0,0,1,0,.28,6.44,6.44,0,0,0,.73,3.27,2.06,2.06,0,0,0,2.21.94,5.34,5.34,0,0,0,2.28-.83,8,8,0,0,0,2.77-2.37l-2.07.26c-.84.12-1.34.06-1.49-.19a6.23,6.23,0,0,1-.44-1.58,5.05,5.05,0,0,1-.13-1.91,3.33,3.33,0,0,1,1.08-1.44,12.2,12.2,0,0,1,1.48-1.06l1.16-.71Z"/><path class="cls-1" d="M81.24,24.71c.12.27,0,.48-.3.65L79.73,26c-.1,0-.7.35-1.79.92-.66.37-1.13.61-1.4.73-.57.25-1.44.59-2.62,1s-2.06.76-2.63,1l-1.07.48a.56.56,0,0,1-.82-.34l-.88-2,1.21-.54q.52-.22,1.62-.6c.74-.24,1.28-.44,1.62-.59l3.94-1.76q-3.16-1.78-4.82-1.05a5.08,5.08,0,0,0-1.35,1.08.46.46,0,0,1-.19.18c-.15.06-.25,0-.31-.11a.7.7,0,0,1,0-.44,3.47,3.47,0,0,1,1.91-2.85,4.44,4.44,0,0,1,3.11-.09l2.86,1.17a2.94,2.94,0,0,0,2.18.35Zm-2.5,5.77.1,2.28-2.59,0-.12-2.26Z"/><path class="cls-1" d="M87.14,23.32l-1.39.46c-1.06.36-1.91-.3-2.57-2L79.89,13.7l1-2,.16-.2s.11.06.17.24l3,8a7.33,7.33,0,0,0,.54,1.12c.2.19.57.2,1.1,0l.44-.14Z"/><path class="cls-1" d="M100.88,17.3l.35,2.06c.07.41-.4.72-1.42.95a7.57,7.57,0,0,1-2.17.13,6.78,6.78,0,0,1-1.71-.3,2.8,2.8,0,0,1-.86.91,4.86,4.86,0,0,1-1.74.66,7.23,7.23,0,0,1-3.45.2,3.85,3.85,0,0,1-2,1l-1.21.27a.58.58,0,0,1-.46-.11.64.64,0,0,1-.28-.39l-.46-2.1,2.26-.5a3.52,3.52,0,0,0,1.7-.68,2,2,0,0,0,0-.68,2.83,2.83,0,0,0-.36-.9l1.1-2.26a4.89,4.89,0,0,1,.4,1.15,7.32,7.32,0,0,1,.07,2.5A8.27,8.27,0,0,0,93,18.92a6.61,6.61,0,0,0,2.09-.7,2.06,2.06,0,0,0,0-.82,2.53,2.53,0,0,0-.29-.72l1.14-2.25a2.9,2.9,0,0,1,.35.92,6.45,6.45,0,0,1,0,2.41,3.27,3.27,0,0,0,2.2.16,1.6,1.6,0,0,0,.93-.45,5.58,5.58,0,0,0-1.07-2.06l1.07-2.19a9.12,9.12,0,0,1,1.37,3.61C100.83,17,100.86,17.18,100.88,17.3Z"/><path class="cls-1" d="M108.29,17.7a9.88,9.88,0,0,1,.07,1.48q-.18.62-3.45.9c-.32,0-.82,0-1.49,0s-1.17,0-1.49,0l-1,.08c-.4,0-.62-.16-.66-.59l-.18-2.14,1.52-.13c.34,0,.85-.05,1.52-.08s1.17,0,1.5-.07a6,6,0,0,0,1.69-.31,8.18,8.18,0,0,0-1.46-2.38l1.06-2.33c.09-.18.2-.21.32-.07A10.31,10.31,0,0,1,108.29,17.7Zm-3.62-9.83L104,10l-2.16-.73.59-2.07Z"/><path class="cls-1" d="M124.21,20.05l-.9-.06c-2.42-.16-4-1.11-4.72-2.86a6,6,0,0,0-2.91,4.63c-.14,2.18,1.09,3.35,3.69,3.53a11.2,11.2,0,0,0,1.75,0l1.46-.14c.3,0,.45.05.44.16a.75.75,0,0,1-.23.39A5.72,5.72,0,0,1,118,28a3.8,3.8,0,0,1-3.14-1.77,6.12,6.12,0,0,1-.83-3.85,9.05,9.05,0,0,1,1.11-3.68,12.56,12.56,0,0,1,2.28-3,2.44,2.44,0,0,0-1.78-.8A13.6,13.6,0,0,1,117.51,12a1.6,1.6,0,0,1,.75-.24,3.42,3.42,0,0,1,.82-.08,3.25,3.25,0,0,1,1.72.59,1.91,1.91,0,0,1,.72,1.71,2.88,2.88,0,0,1-.28,1.15,4.18,4.18,0,0,1-.8.8c.43.74,1.49,1.17,3.16,1.28l.79.05Z"/><path class="cls-1" d="M131.52,19.46a9.86,9.86,0,0,1-.31,1.45c-.22.37-1.41.37-3.56,0a14.69,14.69,0,0,1-1.45-.35c-.65-.18-1.13-.29-1.45-.35l-1-.17c-.41-.07-.57-.31-.5-.74l.37-2.12,1.5.26c.34.06.84.16,1.49.31s1.15.25,1.48.31a6.07,6.07,0,0,0,1.71.13,8.53,8.53,0,0,0-.81-2.67l1.61-2c.14-.16.25-.16.33,0A10.29,10.29,0,0,1,131.52,19.46Zm-2.32,6.91-1.58,1.42-1.13-1.56-1.23,1.16L124,25.61l1.51-1.42,1.2,1.56,1.2-1.14Z"/><path class="cls-1" d="M137.08,22.77l-1.42-.36q-1.62-.4-1.11-3l1.59-8.62L138,9.57l.25-.08c.05,0,.06.11,0,.29l-1.77,8.31a7.23,7.23,0,0,0-.15,1.24c.07.27.38.48.92.61l.45.11Z"/><path class="cls-1" d="M144.52,23.13a10,10,0,0,1-.5,1.39c-.27.34-1.45.18-3.53-.49-.31-.09-.77-.28-1.39-.54a12.94,12.94,0,0,0-1.39-.54l-.94-.3a.56.56,0,0,1-.39-.81l.66-2,1.45.46c.33.1.8.27,1.43.51s1.1.4,1.42.5a5.71,5.71,0,0,0,1.68.36,8.18,8.18,0,0,0-.44-2.75l1.87-1.75c.16-.13.27-.12.32.06A10.3,10.3,0,0,1,144.52,23.13Zm.42-10.46-1.39,1.7-1.72-1.5,1.34-1.69Z"/><path class="cls-1" d="M162.68,28a3.62,3.62,0,0,1-.41,1.17c-.85,1.73-1.77,2.58-2.74,2.56A10.11,10.11,0,0,1,156,30.45c-3.52-1.74-5.61-2.79-6.29-3.17a5.65,5.65,0,0,1-2.34-1.86,3.55,3.55,0,0,1-2.42-.47l-1.38-.69a.55.55,0,0,1-.26-.85l.95-1.92,1.72.85q2.09,1,2.4.87a1.59,1.59,0,0,0,.38-.52,3.62,3.62,0,0,0,.3-1l2.25-1.16a4.07,4.07,0,0,1-.41,1.2,6.76,6.76,0,0,1-1.48,2,6.91,6.91,0,0,0,2,1.27,3.94,3.94,0,0,0,3.07,0L157.7,24a3.62,3.62,0,0,1,2.77-.1A4.22,4.22,0,0,1,162,25.79,5,5,0,0,1,162.68,28Zm-1.87,1.15c.12-.23,0-.69-.43-1.38a4,4,0,0,0-1.69-1.66,3.06,3.06,0,0,0-2.11-.26l-2.31.55c1.63.95,3,1.66,4,2.14.38.17.82.35,1.32.53C160.31,29.27,160.73,29.29,160.81,29.12Z"/><path class="cls-1" d="M173.4,41A7.43,7.43,0,0,1,170,43.85a5.92,5.92,0,0,1-2.92-.33,8.29,8.29,0,0,1-2.69-1.18,2.8,2.8,0,0,1-1.12-2.76,6.34,6.34,0,0,1,1.4-3,9.52,9.52,0,0,1,2-1.92,8.76,8.76,0,0,1,2.46-1.27c.14-.06.24-.07.3,0s0,.09,0,.16a.8.8,0,0,1-.23.17,10.75,10.75,0,0,0-3.38,2.61,3.25,3.25,0,0,0-.77,2.09,2.34,2.34,0,0,0,1,1.77,8.33,8.33,0,0,0,5,1.71,7.92,7.92,0,0,0,1.82-4.43l2.36-1c.13-.06.19,0,.18.13A8.16,8.16,0,0,1,173.4,41Zm2.54-8.83-1.89,1.14-1.09-2,1.82-1.14Z"/><path class="cls-1" d="M180.69,45.54c-.9,1-1.72,1.37-2.48,1.17a2.55,2.55,0,0,1-1-.67,4.88,4.88,0,0,1-1.49-2,4.13,4.13,0,0,1-.09-1.13,2.41,2.41,0,0,1-1.3.24,2.52,2.52,0,0,1-1.06-.69l-.85-.79a.55.55,0,0,1,0-.89l1.45-1.58,2.3,2.12a1.2,1.2,0,0,0,1.2.08q2-.89,2.25-1a2.67,2.67,0,0,1,2.66.23c.26.25.3.69.09,1.33,0,.14-.24.63-.6,1.46A11.05,11.05,0,0,1,180.69,45.54Zm-1.22-.87c.79-1.22.94-2.06.45-2.51a1.29,1.29,0,0,0-.81-.35,4.84,4.84,0,0,0-1.1.25C177.82,42.55,178.3,43.42,179.47,44.67Z"/><path class="cls-1" d="M180.64,55.26l-2.16.71-.74-2.48,2.13-.73Zm6.24.82c-.23.19-.46.15-.71-.11-.09-.09-.4-.42-.93-1l-1.38-1.46c-.53-.54-.89-.92-1.08-1.15-.4-.48-1-1.22-1.69-2.24s-1.3-1.77-1.7-2.25l-.75-.9a.56.56,0,0,1,.1-.89l1.65-1.38.85,1a16,16,0,0,1,1,1.4c.44.63.77,1.1,1,1.39l2.77,3.3c.56-2.36.46-4-.32-4.92a5.13,5.13,0,0,0-1.41-1,.51.51,0,0,1-.21-.13c-.11-.13-.1-.24,0-.33a.83.83,0,0,1,.43-.14,3.48,3.48,0,0,1,3.26,1.07,4.48,4.48,0,0,1,.94,3c0,.18-.14,1.2-.35,3.08a2.89,2.89,0,0,0,.27,2.19Zm3.88,2.42a9.27,9.27,0,0,1-1.17.91c-.4.14-1.31-.63-2.72-2.31-.2-.24-.49-.64-.88-1.2s-.68-1-.89-1.22l-.63-.76a.54.54,0,0,1,.11-.87l1.64-1.39,1,1.18c.22.26.53.66.94,1.2s.72.94.93,1.2a6.53,6.53,0,0,0,1.22,1.2,8.15,8.15,0,0,0,1.09-2.59l2.54-.44c.19,0,.27,0,.22.2A10.29,10.29,0,0,1,190.76,58.5Zm7-7.35-2.07.71-.65-2.19,2-.71Z"/><path class="cls-1" d="M194.13,61.78a3.48,3.48,0,0,1-1.61.37,6.66,6.66,0,0,1-1.68-.07c-.18,0-.29,0-.31-.08s.08-.1.3-.24c.94-.58,1.55-1,1.83-1.18.93-.64,2.11-1.53,3.54-2.65,1.73-1.33,2.91-2.22,3.54-2.65l2.7.12c.12,0,.19,0,.21.05s-.05.11-.22.23Z"/><path class="cls-1" d="M6.76,116.16l0-2.33,2.42-.89.06-4.23-2.39-.91,0-2.27,10.52,4.29,0,2.26ZM11,112.29l4-1.4-3.9-1.49Z"/><path class="cls-1" d="M10.29,117.16l.38,2.06a2.56,2.56,0,0,0-1.47.89,2.31,2.31,0,0,0-.35,1.59,2.39,2.39,0,0,0,.57,1.51,1.29,1.29,0,0,0,1.06.43,1,1,0,0,0,.62-.27,1.79,1.79,0,0,0,.39-.81c.07-.26.17-.84.31-1.75a5.81,5.81,0,0,1,.84-2.49,2.76,2.76,0,0,1,2-1.16,2.81,2.81,0,0,1,2.73,1.55,5.17,5.17,0,0,1,.55,2.05,4.39,4.39,0,0,1-.61,3.06,3.08,3.08,0,0,1-2.23,1.26L14.83,123a1.81,1.81,0,0,0,1.12-.69,2.18,2.18,0,0,0,.24-1.38,2.45,2.45,0,0,0-.51-1.42.75.75,0,0,0-.68-.28.81.81,0,0,0-.62.37,5.6,5.6,0,0,0-.53,2,10,10,0,0,1-.56,2.36,3,3,0,0,1-1,1.26,3.18,3.18,0,0,1-1.64.57,3.11,3.11,0,0,1-1.74-.35,3,3,0,0,1-1.3-1.33,6,6,0,0,1-.59-2.26,4.59,4.59,0,0,1,.65-3.15A4.1,4.1,0,0,1,10.29,117.16Z"/><path class="cls-1" d="M11.24,127.29l.59,2a2.48,2.48,0,0,0-1.37,1,2.25,2.25,0,0,0-.2,1.61,2.4,2.4,0,0,0,.72,1.45,1.3,1.3,0,0,0,1.1.33,1,1,0,0,0,.59-.34,1.85,1.85,0,0,0,.3-.84c0-.26.09-.85.14-1.77a5.84,5.84,0,0,1,.58-2.56,2.74,2.74,0,0,1,1.92-1.35,2.66,2.66,0,0,1,1.57.17,2.85,2.85,0,0,1,1.3,1.1,5.42,5.42,0,0,1,.75,2,4.49,4.49,0,0,1-.31,3.11,3.09,3.09,0,0,1-2.09,1.47l-.49-2.08a1.84,1.84,0,0,0,1-.8,2.1,2.1,0,0,0,.1-1.4,2.44,2.44,0,0,0-.64-1.36.79.79,0,0,0-.71-.21.81.81,0,0,0-.58.43,5.71,5.71,0,0,0-.33,2.06,10.22,10.22,0,0,1-.32,2.41,2.88,2.88,0,0,1-.84,1.35,3.18,3.18,0,0,1-1.58.73,3.1,3.1,0,0,1-1.77-.19,3,3,0,0,1-1.42-1.18,6,6,0,0,1-.81-2.19,4.62,4.62,0,0,1,.34-3.21A4.05,4.05,0,0,1,11.24,127.29Z"/><path class="cls-1" d="M14.9,136.9a6.74,6.74,0,0,1,2.74-.32,5,5,0,0,1,1.68.52,4.09,4.09,0,0,1,1.3,1,5.83,5.83,0,0,1,1.07,2.06,5,5,0,0,1-.31,4,5.58,5.58,0,0,1-3.46,2.51,5.51,5.51,0,0,1-4.24-.17,5.55,5.55,0,0,1-2.17-7.16A5.47,5.47,0,0,1,14.9,136.9Zm.71,2.09a4,4,0,0,0-2.37,1.59,2.86,2.86,0,0,0,1.21,4,4.05,4.05,0,0,0,2.88,0A4,4,0,0,0,19.7,143a2.68,2.68,0,0,0,.24-2.29A2.72,2.72,0,0,0,18.46,139,4,4,0,0,0,15.61,139Z"/><path class="cls-1" d="M20,155.23l.22,2.17a4.65,4.65,0,0,1-3-.44,5,5,0,0,1-1.93-6,5.5,5.5,0,0,1,3.08-2.8,5.77,5.77,0,0,1,4.31-.37,4.65,4.65,0,0,1,2.76,2.72,4.43,4.43,0,0,1,.2,3.35,4.24,4.24,0,0,1-1.37,1.77L23,153.87a2.17,2.17,0,0,0,.75-2.75,2.42,2.42,0,0,0-1.53-1.42,4.1,4.1,0,0,0-2.8.41,4.49,4.49,0,0,0-2.35,1.79A2.36,2.36,0,0,0,17,154a2.19,2.19,0,0,0,1.08,1.14A3.11,3.11,0,0,0,20,155.23Z"/><path class="cls-1" d="M18.33,160.64l9.39-4.89,1,1.9-9.39,4.88Z"/><path class="cls-1" d="M25.49,172.93l-1.22-2,1.56-2-2.22-3.6-2.51.52-1.19-1.93,11.17-2,1.19,1.92Zm1.5-5.55,2.57-3.31-4.09.85Z"/><path class="cls-1" d="M27.33,175.3,34.38,170l-1.87-2.52,1.43-1.07,5,6.75-1.44,1.07-1.87-2.51-7,5.26Z"/><path class="cls-1" d="M31.65,180.83,39.71,174l1.38,1.63L33,182.45Z"/><path class="cls-1" d="M38.09,180.46a6.67,6.67,0,0,1,2.26-1.58,5.11,5.11,0,0,1,1.73-.33,4.16,4.16,0,0,1,1.64.3,5.88,5.88,0,0,1,1.91,1.32,5,5,0,0,1,1.61,3.68,5.5,5.5,0,0,1-1.87,3.84,5.55,5.55,0,0,1-3.82,1.85,5.57,5.57,0,0,1-5.29-5.3A5.44,5.44,0,0,1,38.09,180.46ZM39.7,182a4,4,0,0,0-1.35,2.52,2.84,2.84,0,0,0,3,3,4,4,0,0,0,2.53-1.37,4,4,0,0,0,1.36-2.48,3,3,0,0,0-3-3A3.94,3.94,0,0,0,39.7,182Z"/><path class="cls-1" d="M43.47,193l6.63-8.25,1.63,1.3-1,8.22,4.42-5.51L56.65,190,50,198.26l-1.67-1.34,1-8.06L45,194.24Z"/><path class="cls-1" d="M58.34,197.73a6.84,6.84,0,0,1,1.78-2.11,5.13,5.13,0,0,1,1.58-.76,4.15,4.15,0,0,1,1.66-.14,5.85,5.85,0,0,1,2.19.78,5,5,0,0,1,2.51,3.13,6.48,6.48,0,0,1-4,7,5.59,5.59,0,0,1-6.48-3.74A5.51,5.51,0,0,1,58.34,197.73Zm1.94,1a4,4,0,0,0-.64,2.78,2.85,2.85,0,0,0,3.64,2.11,4,4,0,0,0,2.09-2,4,4,0,0,0,.67-2.75,2.69,2.69,0,0,0-1.39-1.84,2.74,2.74,0,0,0-2.3-.28A4,4,0,0,0,60.28,198.77Z"/><path class="cls-1" d="M66.77,208.4l4.33-9.66,6.62,3L77,203.34l-4.67-2.09-1,2.29,4,1.8L74.59,207l-4-1.81-1.84,4.11Z"/><path class="cls-1" d="M79.54,213.57,82.8,203.5l2,.66-3.27,10.07Z"/><path class="cls-1" d="M84,215.05l2.5-10.29,4.37,1.07a7.37,7.37,0,0,1,2.33.86,2.45,2.45,0,0,1,1,1.28,3.07,3.07,0,0,1,0,1.73,2.84,2.84,0,0,1-1.14,1.74,3.39,3.39,0,0,1-2.27.46,5,5,0,0,1,.9,1.13,11.44,11.44,0,0,1,.78,2l.76,2.31-2.48-.6-1-2.61a15.18,15.18,0,0,0-.72-1.78,1.74,1.74,0,0,0-.52-.58,3.77,3.77,0,0,0-1-.37l-.42-.1-1,4.3Zm3.52-5.43,1.53.37a8,8,0,0,0,1.9.33,1.13,1.13,0,0,0,.69-.29,1.34,1.34,0,0,0,.4-.72,1.27,1.27,0,0,0-.07-.91,1.36,1.36,0,0,0-.69-.59c-.16-.07-.66-.2-1.51-.41L88.17,207Z"/><path class="cls-1" d="M104.56,218.85l-2.31-.31-.59-2.5-4.2-.56-1.18,2.27-2.25-.3,5.48-9.95,2.25.29Zm-3.35-4.67-.93-4.09-1.93,3.71Z"/><path class="cls-1" d="M106.45,218.94l.29-10.58,2.08.06L113,215.6l.19-7.07,2,.06-.29,10.58-2.14,0-4.08-7-.19,6.9Z"/><path class="cls-1" d="M124.51,218.55l-1-8.74-3.12.35-.2-1.78,8.36-.94.2,1.78-3.11.35,1,8.74Z"/><path class="cls-1" d="M131.71,217.63l-2.17-10.36,7.68-1.61.37,1.75L132,208.58l.48,2.3,5.2-1.09.37,1.74-5.2,1.09.59,2.82,5.79-1.21.36,1.75Z"/><path class="cls-1" d="M141,215.65l1.79-6.36-4.66-3.84,2.38-.75,3.06,2.6.95-3.87,2.37-.75-1.59,5.9,5.09,4.1-2.46.78-3.34-2.79-1.14,4.21Z"/><path class="cls-1" d="M154.18,211.07,150.74,203l-2.89,1.23-.7-1.65,7.74-3.29.7,1.65-2.88,1.22,3.44,8.1Z"/><path class="cls-1" d="M160.58,208.18l-4.77-9.45,1.91-1,4.77,9.46Z"/><path class="cls-1" d="M164.73,206.08,159.39,197l1.84-1.08,4.44,7.5,4.57-2.7.91,1.54Z"/><path class="cls-1" d="M173,201.09l-6.21-8.58,6.36-4.6,1,1.45-4.63,3.35,1.38,1.9,4.3-3.12,1,1.44-4.3,3.12,1.69,2.34,4.79-3.48,1,1.45Z"/><path class="cls-1" d="M184.5,192.06l-7.12-7.83,1.58-1.44,7.12,7.83Z"/><path class="cls-1" d="M188,188.92l-7.68-7.29,1.44-1.51,8.11,1.73L184.72,177l1.37-1.44,7.67,7.29-1.47,1.56-7.95-1.66,5,4.76Z"/><path class="cls-1" d="M187.28,174.15l2.38-3.1a7.89,7.89,0,0,1,1.38-1.48,3.62,3.62,0,0,1,1.75-.67,4.52,4.52,0,0,1,2,.24,7.78,7.78,0,0,1,2.2,1.24,6.92,6.92,0,0,1,1.59,1.63,4.58,4.58,0,0,1,.8,2,3.85,3.85,0,0,1-.24,1.71,6.76,6.76,0,0,1-1,1.63l-2.45,3.2Zm2.72-.61,5.57,4.27,1-1.27a5.9,5.9,0,0,0,.71-1.09,1.92,1.92,0,0,0,.17-.95,2.2,2.2,0,0,0-.47-1.07,7.29,7.29,0,0,0-1.4-1.35,6.27,6.27,0,0,0-1.63-1,2.43,2.43,0,0,0-1.19-.14,1.91,1.91,0,0,0-1,.48,9,9,0,0,0-1.15,1.33Z"/><path class="cls-1" d="M193.45,166l1.11-1.83,4.9,3A11.63,11.63,0,0,0,201,168a1.68,1.68,0,0,0,1.23,0,2.25,2.25,0,0,0,1.07-1,2.14,2.14,0,0,0,.4-1.36,1.46,1.46,0,0,0-.5-1,12.19,12.19,0,0,0-1.48-1l-5-3,1.11-1.83,4.76,2.89a14.7,14.7,0,0,1,2.21,1.55,2.94,2.94,0,0,1,.8,1.24,3.14,3.14,0,0,1,.09,1.51,5.57,5.57,0,0,1-.78,1.91,6,6,0,0,1-1.5,1.78,3.27,3.27,0,0,1-1.42.59,3,3,0,0,1-1.31-.1,12.86,12.86,0,0,1-2.41-1.22Z"/><path class="cls-1" d="M204.93,160.64l.71-2a2.54,2.54,0,0,0,1.71,0,2.36,2.36,0,0,0,1.11-1.19,2.34,2.34,0,0,0,.27-1.6A1.29,1.29,0,0,0,208,155a1,1,0,0,0-.68-.07,1.68,1.68,0,0,0-.74.49c-.19.19-.57.64-1.15,1.35a5.77,5.77,0,0,1-2,1.73,2.78,2.78,0,0,1-3.52-1.09,3,3,0,0,1-.4-1.66,5.41,5.41,0,0,1,.56-2,4.45,4.45,0,0,1,2.08-2.33,3.09,3.09,0,0,1,2.56,0l-.83,2a1.81,1.81,0,0,0-1.31,0,2.16,2.16,0,0,0-.91,1.07,2.42,2.42,0,0,0-.28,1.48.76.76,0,0,0,.45.59.8.8,0,0,0,.72,0,5.78,5.78,0,0,0,1.48-1.47,10.78,10.78,0,0,1,1.68-1.76,2.94,2.94,0,0,1,1.47-.59,3.32,3.32,0,0,1,3,1.53,3.05,3.05,0,0,1,.45,1.79,5.86,5.86,0,0,1-.64,2.25,4.55,4.55,0,0,1-2.16,2.39A4,4,0,0,1,204.93,160.64Z"/><path class="cls-1" d="M213.45,149.83l-8.27-3-1.07,2.95-1.68-.61,2.87-7.91,1.68.61-1.07,2.95,8.27,3Z"/><path class="cls-1" d="M215.85,142.92l-10.26-2.61L206.7,136a7.73,7.73,0,0,1,.88-2.32,2.43,2.43,0,0,1,1.29-.94,3.07,3.07,0,0,1,1.73,0,2.81,2.81,0,0,1,1.73,1.16,3.39,3.39,0,0,1,.44,2.27,5.05,5.05,0,0,1,1.14-.89,12,12,0,0,1,2-.75l2.32-.75-.63,2.48-2.61.93a15,15,0,0,0-1.78.71,1.57,1.57,0,0,0-.59.51,3.72,3.72,0,0,0-.38,1l-.11.42,4.29,1.09Zm-5.39-3.58.38-1.53a7.9,7.9,0,0,0,.35-1.89,1.24,1.24,0,0,0-.28-.7,1.45,1.45,0,0,0-.72-.4,1.27,1.27,0,0,0-.91.06,1.31,1.31,0,0,0-.6.68c-.07.16-.2.66-.42,1.5l-.41,1.62Z"/><path class="cls-1" d="M218.37,132.12,208,130.28l.37-2.11L218.75,130Z"/><path class="cls-1" d="M219.19,127.52l-10.53-1.11.83-7.81,1.78.19-.6,5.68,2.33.25.56-5.29,1.77.19-.55,5.29,2.86.3.62-5.88,1.78.18Z"/><path class="cls-1" d="M216.71,117.57l-.18-2.08a2.58,2.58,0,0,0,1.54-.75,2.31,2.31,0,0,0,.5-1.55,2.34,2.34,0,0,0-.42-1.56,1.3,1.3,0,0,0-1-.53,1,1,0,0,0-.64.21,1.81,1.81,0,0,0-.46.77q-.14.38-.48,1.71a5.74,5.74,0,0,1-1.07,2.4,2.73,2.73,0,0,1-2.14,1,2.8,2.8,0,0,1-1.51-.47,3,3,0,0,1-1.06-1.33,5.48,5.48,0,0,1-.35-2.09,4.43,4.43,0,0,1,.9-3,3.06,3.06,0,0,1,2.34-1l.08,2.14a1.81,1.81,0,0,0-1.18.57,2.21,2.21,0,0,0-.37,1.36,2.51,2.51,0,0,0,.37,1.46.76.76,0,0,0,.66.34.81.81,0,0,0,.64-.31,5.69,5.69,0,0,0,.73-2,10,10,0,0,1,.78-2.3,2.88,2.88,0,0,1,1.08-1.16,3.18,3.18,0,0,1,1.69-.41,3.06,3.06,0,0,1,1.7.52,3,3,0,0,1,1.17,1.44,6,6,0,0,1,.37,2.31,4.53,4.53,0,0,1-1,3.07A4,4,0,0,1,216.71,117.57Z"/><circle class="cls-2" cx="113.82" cy="113.82" r="113.01"/><path class="cls-1" d="M85.05,188.57c0,1.39-.15,2.09-.46,2.09-.15,0-.24-.26-.27-.77v-.95a9.34,9.34,0,0,0-.36-2.16,12.63,12.63,0,0,0-1.6-3.72l.76-1.19a10.85,10.85,0,0,1,1.3,2.85A13,13,0,0,1,85.05,188.57Z"/><path class="cls-1" d="M94,182.22q0,2.25-1.41,2.25a1.24,1.24,0,0,1-.59-.17,1,1,0,0,1-.42-.42,1.07,1.07,0,0,1-.49.57,1.45,1.45,0,0,1-.73.19,1.12,1.12,0,0,1-.38-.06,8.32,8.32,0,0,1,.61,1.73,10.06,10.06,0,0,1,.36,2.52c0,.71,0,1.12,0,1.23,0,.4-.16.61-.35.61s-.19-.29-.27-.86l-.12-1a13,13,0,0,0-2.33-5.6l.71-1.26c.45.66.69,1,.7,1a1.35,1.35,0,0,0,1,.46.82.82,0,0,0,.75-.41,4,4,0,0,0,.29-.81c.06-.2.14-.3.25-.3s.2.13.23.39a1.61,1.61,0,0,0,.18.69.72.72,0,0,0,.67.32.68.68,0,0,0,.66-.39,3.05,3.05,0,0,0,.2-.68c.06-.24.15-.36.28-.36S94,182,94,182.22Z"/><path class="cls-1" d="M101,184.16c0,.25-.19.51-.56.77a2.22,2.22,0,0,1-1.37.44,2.5,2.5,0,0,1-1.41-.36,5.83,5.83,0,0,1,.57,1.54,9.63,9.63,0,0,1,.29,2.28c0,.71,0,1.12,0,1.23,0,.4-.15.61-.34.61s-.18-.17-.22-.5-.09-.72-.18-1.39a12.06,12.06,0,0,0-.55-2.19,11.62,11.62,0,0,0-1.78-3.41l.71-1.26c.26.39.65.9,1.17,1.55a2,2,0,0,1,.57-1.36,1.83,1.83,0,0,1,1.35-.54,1.52,1.52,0,0,1,.9.3,1.05,1.05,0,0,1,.43.45.15.15,0,0,1,0,.17.22.22,0,0,1-.18,0,3.44,3.44,0,0,0-1-.14,1.23,1.23,0,0,0-.83.28,1,1,0,0,0-.33.77.52.52,0,0,0,0,.14.83.83,0,0,0,.48.55,1.64,1.64,0,0,0,.72.19,2.21,2.21,0,0,0,1.17-.25.66.66,0,0,1,.29-.11C100.91,183.94,101,184,101,184.16Z"/><path class="cls-1" d="M106.47,186.75l-1.31,1.31-1.29-1.3,1.31-1.3Z"/><path class="cls-1" d="M127.19,190.41h-.52a1.38,1.38,0,0,1-1.35-.79,1.26,1.26,0,0,1-1.27.82,1.2,1.2,0,0,1-1.2-.85,1.47,1.47,0,0,1-1.35.85,2.37,2.37,0,0,1-.71-.11c0,.57-.05,1.18-.1,1.82a2.9,2.9,0,0,1-1.64,1.64,5.4,5.4,0,0,1-2.34.5,3.21,3.21,0,0,1-2-.62,2.26,2.26,0,0,1-.88-1.9,3.4,3.4,0,0,1,.32-1.39,3.56,3.56,0,0,1,.47-.82.31.31,0,0,1,.22-.14c.06,0,.09,0,.09.1a.41.41,0,0,1,0,.16,3.7,3.7,0,0,0-.42,1.59,1.76,1.76,0,0,0,.47,1.22,2.4,2.4,0,0,0,1.87.68,5.57,5.57,0,0,0,2.46-.51,2.15,2.15,0,0,0,1.09-.91,1.32,1.32,0,0,0,0-.63,2.83,2.83,0,0,0-.14-.71,6.65,6.65,0,0,0-.92-1.41l.41-.79c.06-.11.11-.17.14-.17s.07.05.13.14a6.61,6.61,0,0,0,.55.75,1.34,1.34,0,0,0,1,.4,1.11,1.11,0,0,0,.91-.35,2,2,0,0,0,.3-.82c0-.18.09-.27.17-.27s.13.08.15.24c.1.8.45,1.2,1,1.2a1.1,1.1,0,0,0,1.18-1.14c0-.18.07-.28.15-.28s.14.09.17.28c.1.75.47,1.12,1.12,1.12h.55Z"/><path class="cls-1" d="M131.89,190.41h-.73a1.8,1.8,0,0,1-1.77-.87,2,2,0,0,1-2,.87h-.62v-1.1h.85c.93,0,1.43-.36,1.52-1.08,0-.29.1-.44.21-.44s.18.15.21.45c.07.71.55,1.07,1.45,1.07h.84Zm-3.15,2.1-.72.73-.75-.74.74-.74Zm1.64,0-.73.73-.75-.74.74-.74Z"/><path class="cls-1" d="M139.41,188.38a2.32,2.32,0,0,1-.4,1.4,1.46,1.46,0,0,1-1.26.63,1.43,1.43,0,0,1-1.37-.79,1.56,1.56,0,0,1-1.34.79,1.36,1.36,0,0,1-1.39-.79,1.7,1.7,0,0,1-1.48.79h-.66v-1.1h.76a1.16,1.16,0,0,0,1.22-1.12c0-.19.09-.28.18-.28s.13.1.14.29a1.09,1.09,0,0,0,1.2,1.11,1.11,1.11,0,0,0,.91-.33,1.72,1.72,0,0,0,.27-.8c0-.18.08-.27.16-.27s.13.09.16.27c.1.75.48,1.13,1.15,1.13s1.08-.17,1.08-.51a2,2,0,0,0-.53-1.09l.43-.82c.07-.13.12-.19.15-.19s.08.07.16.21A3.09,3.09,0,0,1,139.41,188.38Z"/><path class="cls-1" d="M142.73,180.09l-.11.47a14.08,14.08,0,0,0-2.14.6v-.35c.12-.08.33-.19.62-.35-.4-.28-.6-.51-.6-.7a1.33,1.33,0,0,1,.4-.75,1.15,1.15,0,0,1,.82-.51.76.76,0,0,1,.73.48c.05.09.05.16,0,.2s-.1,0-.2,0a1.81,1.81,0,0,0-.62-.09.79.79,0,0,0-.35.09c-.16.07-.23.16-.23.26s.12.34.38.46a1.28,1.28,0,0,0,.61.17,1.71,1.71,0,0,0,.49-.07l.08,0,.07,0s0,0,0,0S142.75,180,142.73,180.09Zm1,10.32H143a1.48,1.48,0,0,1-1.47-.87,4.17,4.17,0,0,1-.28-1.82V185.9c0-.88-.07-2.12-.22-3.71l.59-.63c.11-.11.17-.11.19,0a27,27,0,0,1,.2,3.77v2.78c0,.79.38,1.18,1.13,1.18h.51Z"/><path class="cls-1" d="M146,188.52a1.67,1.67,0,0,1-1.89,1.89h-.78v-1.1h.65c.95,0,1.42-.17,1.42-.51a2.49,2.49,0,0,0-.64-1.19l.38-.94c0-.1.08-.14.1-.14s.08.05.16.17A3.21,3.21,0,0,1,146,188.52Zm-.89-4.17-.73.73-.74-.74.74-.73Zm1.64,0-.74.73-.74-.74.74-.73Z"/></g></g></svg>